# AST/ASF file generated using VICON BodyLanguage
# -----------------------------------------------
:version 1.10
:name VICON
:units
  mass 1.0
  length 0.45
  angle deg
:documentation
   .ast/.asf automatically generated from VICON data using
   VICON BodyBuilder and BodyLanguage model FoxedUp or BRILLIANT.MOD
:root
   order TX TY TZ RX RY RZ
   axis XYZ
   position 0 0 0  
   orientation 0 0 0 
:bonedata
  begin
     id 1 
     name lhipjoint
     direction 0.702568 -0.596508 0.388042 
     length 2.56661 
     axis 0 0 0  XYZ
  end
  begin
     id 2 
     name lfemur
     direction 0.34202 -0.939693 0  
     length 6.58374  
     axis 0 0 20  XYZ
    dof rx ry rz
    limits (-160.0 20.0)
           (-70.0 70.0)
           (-60.0 70.0)
  end
  begin
     id 3 
     name ltibia
     direction 0.34202 -0.939693 0   
     length 6.62538   
     axis 0 0 20   XYZ
    dof rx
    limits (-10.0 170.0)
  end
  begin
     id 4 
     name lfoot
     direction 0.10455 -0.287249 0.952133   
     length 2.26699   
     axis -90 7.62852e-016 20   XYZ
    dof rx rz
    limits (-45.0 90.0)
           (-70.0 20.0)
  end
  begin
     id 5 
     name ltoes
     direction 1.53572e-011 -4.22322e-011 1   
     length 1.12949   
     axis -90 7.62852e-016 20   XYZ
    dof rx
    limits (-90.0 20.0)
  end
  begin
     id 6 
     name rhipjoint
     direction -0.728055 -0.574632 0.373811   
     length 2.66432  
     axis 0 0 0  XYZ 
  end
  begin
     id 7 
     name rfemur
     direction -0.34202 -0.939693 0   
     length 6.66732   
     axis 0 0 -20   XYZ
    dof rx ry rz
    limits (-160.0 20.0)
           (-70.0 70.0)
           (-70.0 60.0)
  end
  begin
     id 8 
     name rtibia
     direction -0.34202 -0.939693 0   
     length 6.59288   
     axis 0 0 -20   XYZ
    dof rx
    limits (-10.0 170.0)
 end
 begin
     id 9 
     name rfoot
     direction -0.119193 -0.327479 0.93731   
     length 2.38061  
     axis -90 -7.62852e-016 -20   XYZ
    dof rx rz
    limits (-45.0 90.0)
           (-20.0 70.0)
  end
  begin
     id 10 
     name rtoes
     direction -1.53547e-011 -4.21827e-011 1   
     length 1.17899   
     axis -90 -7.62852e-016 -20   XYZ
    dof rx
    limits (-90.0 20.0)
  end
  begin
     id 11 
     name lowerback
     direction -0.000416114 0.999912 -0.0132284   
     length 2.12109   
     axis 0 0 0   XYZ
    dof rx ry rz
    limits (-20.0 45.0)
           (-30.0 30.0)
           (-30.0 30.0)
  end
  begin
     id 12 
     name upperback
     direction -0.00136371 0.99809 0.0617608   
     length 2.10067   
     axis 0 0 0   XYZ
    dof rx ry rz
    limits (-20.0 45.0)
           (-30.0 30.0)
           (-30.0 30.0)
  end
  begin
     id 13 
     name thorax
     direction -3.43026e-005 0.997776 0.0666515   
     length 2.10618   
     axis 0 0 0   XYZ
    dof rx ry rz
    limits (-20.0 45.0)
           (-30.0 30.0)
           (-30.0 30.0)
  end
  begin
     id 14 
     name lowerneck
     direction 0.0398646 0.998418 0.0396592   
     length 1.83817   
     axis 0 0 0   XYZ
    dof rx ry rz
    limits (-20.0 45.0)
           (-30.0 30.0)
           (-30.0 30.0)
  end
  begin
     id 15 
     name upperneck
     direction -0.0367268 0.961527 -0.272244   
     length 1.81975   
     axis 0 0 0   XYZ
    dof rx ry rz
    limits (-20.0 45.0)
           (-30.0 30.0)
           (-30.0 30.0)
  end
  begin
     id 16
     name head
     direction -0.0182665 0.99536 -0.0944669  
     length 1.86026  
     axis 0 0 0   XYZ
    dof rx ry rz
    limits (-20.0 45.0)
           (-30.0 30.0)
           (-30.0 30.0)
  end
  begin
     id 17 
     name lclavicle
     direction 0.924239 0.361045 0.124212  
     length 3.26878  
     axis 0 0 0   XYZ
    dof ry rz
    limits (-20.0 10.0)
           (0.0 20.0)
  end
  begin
     id 18 
     name lhumerus
     direction 1 -4.48968e-011 -2.56583e-027   
     length 4.58538   
     axis 180 -30 -90   XYZ
    dof rx ry rz
    limits (-60.0 90.0)
           (-90.0 90.0)
           (-90.0 90.0)
  end
  begin
     id 19
     name lradius
     direction 1 -4.4898e-011 -5.50375e-027   
     length 2.68935   
     axis 180 -30 -90   XYZ
    dof rx
    limits (-10.0 170.0)
  end
  begin
     id 20
     name lwrist
     direction 1 -4.48939e-011 -1.48955e-026   
     length 1.34468   
     axis 9.0955e-015 90 90   XYZ
    dof ry
    limits (-180.0 0.0)
 end
  begin
     id 21 
     name lhand
     direction 1 -4.48936e-011 -2.97907e-026   
     length 0.585058   
     axis 1.90115e-014 90 90   XYZ
    dof rx rz
    limits (-90.0 90.0)
           (-45.0 45.0)
  end
  begin
     id 22 
     name lfingers
     direction 1 -4.49082e-011 -5.96235e-026   
     length 0.471689   
     axis 3.80223e-014 90 90   XYZ
    dof rx
    limits (0.0 90.0)
  end
  begin
     id 23
     name lthumb
     direction 0.707107 -6.3489e-011 0.707107   
     length 0.677253   
     axis -90 45 -3.84942e-014   XYZ
    dof rx rz
    limits (-45.0 45.0)
           (-45.0 45.0)
  end
  begin
     id 24 
     name rclavicle
     direction -0.923098 0.371783 0.0983239   
     length 3.19656  
     axis 0 0 0   XYZ 
    dof ry rz
    limits (-10.0 20.0)
           (-20.0 0.0)
  end
  begin
     id 25 
     name rhumerus
     direction -1 -4.48976e-011 -2.5492e-027  
     length 4.4745   
     axis 180 30 90   XYZ
    dof rx ry rz
    limits (-90.0 60.0)
           (-90.0 90.0)
           (-90.0 90.0)
  end
  begin
     id 26 
     name rradius
     direction -1 -4.48941e-011 -4.36555e-027   
     length 2.93896   
     axis 180 30 90   XYZ
    dof rx
    limits (-10.0 170.0)
  end
  begin
     id 27 
     name rwrist
     direction -1 -4.49044e-011 -1.49032e-026   
     length 1.46948   
     axis 9.0955e-015 -90 -90   XYZ
    dof ry
    limits (-180.0 0.0)
  end
  begin
     id 28
     name rhand
     direction -1 -4.48826e-011 -2.97749e-026   
     length 0.405092   
     axis 1.90115e-014 -90 -90   XYZ
    dof rx rz
    limits (-90.0 90.0)
           (-45.0 45.0)
  end
  begin
     id 29
     name rfingers
     direction -1 -4.49209e-011 -5.96602e-026   
     length 0.326596   
     axis 3.80223e-014 -90 -90   XYZ
    dof rx
    limits (0.0 90.0)
  end
  begin
     id 30
     name rthumb
     direction -0.707107 -6.34776e-011 0.707107   
     length 0.468928   
     axis -90 -45 3.84942e-014   XYZ
    dof rx rz
    limits (-45.0 45.0)
           (-45.0 45.0)
  end
:hierarchy
  begin
    root lhipjoint rhipjoint lowerback
    lhipjoint lfemur
    lfemur ltibia
    ltibia lfoot
    lfoot ltoes
    rhipjoint rfemur
    rfemur rtibia
    rtibia rfoot
    rfoot rtoes
    lowerback upperback
    upperback thorax
    thorax lowerneck lclavicle rclavicle
    lowerneck upperneck
    upperneck head
    lclavicle lhumerus
    lhumerus lradius
    lradius lwrist
    lwrist lhand lthumb
    lhand lfingers
    rclavicle rhumerus
    rhumerus rradius
    rradius rwrist
    rwrist rhand rthumb
    rhand rfingers
  end

#!OML:ASF H:\Punching\Project 1\Capture day 1\Session 1\female.ASF
:FULLY-SPECIFIED
:DEGREES
568
root 1.04318 14.6264 3.15996 16.5321 21.4583 1.07589
lowerback -0.441532 3.42714 1.2866
upperback -5.72158 4.71766 0.949427
thorax -5.65463 2.32925 0.0545022
lowerneck -10.2842 -6.69073 3.29762
upperneck 26.7162 -12.6442 9.68111
head 10.8181 -4.23296 1.36804
rclavicle -7.42958e-014 1.59028e-014
rhumerus 20.8024 -2.75348 -61.6628
rradius 87.8234
rwrist -37.7875
rhand -7.24257 -32.368
rfingers 7.12502
rthumb 18.6375 -61.4951
lclavicle -7.42958e-014 1.59028e-014
lhumerus 26.2785 -44.9895 78.2672
lradius 132.211
lwrist 15.9491
lhand -21.0842 11.6862
lfingers 7.12502
lthumb 5.29303 41.6001
rfemur 17.4172 -18.6404 13.0033
rtibia 7.31528e-014
rfoot -22.1437 -22.9614
rtoes -2.33819
lfemur -55.4229 -11.3291 -13.147
ltibia 47.0137
lfoot -6.35163 2.04592
ltoes -4.86405
569
root 1.04097 14.6093 3.16054 16.5232 22.3842 1.17654
lowerback -0.667565 3.98731 1.59428
upperback -5.69786 5.47117 0.903493
thorax -5.46595 2.69221 -0.174858
lowerneck -9.95265 -7.44645 2.56903
upperneck 26.313 -13.5637 10.0192
head 10.7157 -4.71429 1.49958
rclavicle 8.96022e-014 1.11319e-014
rhumerus 23.4712 -4.43376 -60.4056
rradius 79.9153
rwrist -33.3921
rhand -7.82594 -32.3244
rfingers 7.12502
rthumb 18.0763 -61.5045
lclavicle 8.96022e-014 1.11319e-014
lhumerus 26.3164 -45.5017 78.1572
lradius 131.765
lwrist 15.387
lhand -21.014 11.7209
lfingers 7.12502
lthumb 5.36085 41.6331
rfemur 17.7326 -19.4175 13.0927
rtibia -2.22639e-014
rfoot -22.4585 -23.0772
rtoes -1.31261
lfemur -55.6045 -11.8199 -13.2491
ltibia 47.0258
lfoot -6.26274 1.67425
ltoes -4.87229
570
root 1.03916 14.5954 3.15995 16.4967 23.101 1.25854
lowerback -0.872169 4.54322 1.88328
upperback -5.68109 6.21587 0.834123
thorax -5.28801 3.05172 -0.41195
lowerneck -9.58848 -8.1238 1.95651
upperneck 25.9865 -14.3977 10.3208
head 10.6327 -5.14628 1.61167
rclavicle 4.47266e-015 1.74931e-014
rhumerus 26.2104 -6.01569 -59.3596
rradius 71.3568
rwrist -28.667
rhand -9.14273 -32.0897
rfingers 7.12502
rthumb 16.809 -61.3822
lclavicle 4.47266e-015 1.74931e-014
lhumerus 26.3178 -45.9281 78.0765
lradius 131.261
lwrist 14.6403
lhand -20.9006 11.7533
lfingers 7.12502
lthumb 5.47034 41.6627
rfemur 17.9881 -19.9942 13.1714
rtibia 6.04305e-014
rfoot -22.7263 -23.2432
rtoes -0.466353
lfemur -55.7222 -12.1324 -13.3796
ltibia 47.0525
lfoot -6.20103 1.32125
ltoes -4.86522
571
root 1.03676 14.5846 3.15828 16.4311 23.6393 1.29711
lowerback -1.02175 5.09132 2.19114
upperback -5.67987 6.94936 0.733288
thorax -5.14352 3.404 -0.689624
lowerneck -9.2189 -8.72386 1.48826
upperneck 25.7603 -15.1551 10.5787
head 10.577 -5.52833 1.69575
rclavicle -5.94863e-014 -3.18055e-015
rhumerus 28.9576 -7.65643 -58.656
rradius 62.3835
rwrist -23.6929
rhand -10.9233 -31.8895
rfingers 7.12502
rthumb 15.0944 -61.3192
lclavicle -5.94863e-014 -3.18055e-015
lhumerus 26.2902 -46.293 78.0188
lradius 130.714
lwrist 13.7833
lhand -20.7484 11.8036
lfingers 7.12502
lthumb 5.61725 41.7092
rfemur 18.2058 -20.3918 13.2629
rtibia -2.54444e-014
rfoot -22.9492 -23.4303
rtoes 0.199443
lfemur -55.7794 -12.2773 -13.5116
ltibia 47.1047
lfoot -6.16534 0.981264
ltoes -4.83703
572
root 1.03327 14.5766 3.15575 16.3107 24.0253 1.28323
lowerback -1.11097 5.60792 2.50336
upperback -5.67049 7.64088 0.634214
thorax -5.01598 3.73529 -0.965934
lowerneck -8.91076 -9.23788 1.12751
upperneck 25.637 -15.8213 10.7924
head 10.5604 -5.8546 1.75621
rclavicle -4.16454e-014 -1.43125e-014
rhumerus 31.7456 -9.5108 -58.4719
rradius 53.3255
rwrist -18.4329
rhand -12.7051 -31.8147
rfingers 7.12502
rthumb 13.3774 -61.3652
lclavicle -4.16454e-014 -1.43125e-014
lhumerus 26.2591 -46.5643 77.9804
lradius 130.175
lwrist 12.9014
lhand -20.5429 11.8493
lfingers 7.12502
lthumb 5.81567 41.7495
rfemur 18.4088 -20.6308 13.3707
rtibia 9.54166e-015
rfoot -23.1269 -23.6147
rtoes 0.669415
lfemur -55.7718 -12.2776 -13.6312
ltibia 47.1836
lfoot -6.15642 0.660455
ltoes -4.78415
573
root 1.02821 14.5712 3.15289 16.1261 24.288 1.21029
lowerback -1.11291 6.07749 2.83128
upperback -5.65953 8.27205 0.541352
thorax -4.92787 4.03526 -1.24763
lowerneck -8.68221 -9.66416 0.858865
upperneck 25.6208 -16.3948 10.9708
head 10.5873 -6.12341 1.79769
rclavicle -2.23732e-013 -5.1684e-014
rhumerus 34.5374 -11.8056 -59.0951
rradius 44.6146
rwrist -12.6882
rhand -14.0147 -31.7153
rfingers 7.12502
rthumb 12.1149 -61.3445
lclavicle -2.23732e-013 -5.1684e-014
lhumerus 26.2351 -46.751 77.9423
lradius 129.702
lwrist 12.1017
lhand -20.2719 11.9611
lfingers 7.12502
lthumb 6.07732 41.8539
rfemur 18.6154 -20.736 13.4995
rtibia 3.18055e-015
rfoot -23.2603 -23.7734
rtoes 0.957536
lfemur -55.6966 -12.166 -13.7193
ltibia 47.2802
lfoot -6.17185 0.367324
ltoes -4.72236
574
root 1.02138 14.568 3.14994 15.8838 24.4539 1.08051
lowerback -1.04917 6.48394 3.1636
upperback -5.63557 8.82122 0.468624
thorax -4.86047 4.2942 -1.51326
lowerneck -8.54366 -9.99815 0.66757
upperneck 25.6835 -16.8642 11.1199
head 10.6479 -6.33184 1.82525
rclavicle -6.95498e-014 -3.02153e-014
rhumerus 37.3805 -14.7926 -60.8755
rradius 36.7166
rwrist -6.13826
rhand -14.5592 -31.2194
rfingers 7.12502
rthumb 11.5898 -60.8789
lclavicle -6.95498e-014 -3.02153e-014
lhumerus 26.2395 -46.8516 77.8852
lradius 129.34
lwrist 11.4525
lhand -19.9549 12.104
lfingers 7.12502
lthumb 6.38337 41.9878
rfemur 18.8286 -20.7334 13.6512
rtibia 9.54166e-015
rfoot -23.3508 -23.8923
rtoes 1.06522
lfemur -55.5596 -11.9797 -13.7604
ltibia 47.3762
lfoot -6.20556 0.112071
ltoes -4.66337
575
root 1.0128 14.5675 3.14744 15.6099 24.523 0.910136
lowerback -0.91312 6.82646 3.49124
upperback -5.61768 9.28843 0.39899
thorax -4.83814 4.51128 -1.77974
lowerneck -8.48514 -10.2431 0.557375
upperneck 25.8045 -17.2345 11.2546
head 10.7332 -6.48194 1.84347
rclavicle 7.14631e-014 -4.77083e-015
rhumerus 40.2949 -18.5909 -64.0715
rradius 30.1412
rwrist 1.35554
rhand -14.3808 -30.0899
rfingers 7.12502
rthumb 11.7619 -59.7396
lclavicle 7.14631e-014 -4.77083e-015
lhumerus 26.2584 -46.9113 77.8
lradius 129.11
lwrist 10.9855
lhand -19.6455 12.2215
lfingers 7.12502
lthumb 6.682 42.096
rfemur 19.028 -20.6298 13.8186
rtibia -3.18055e-015
rfoot -23.397 -23.969
rtoes 1.00928
lfemur -55.3718 -11.7433 -13.751
ltibia 47.4481
lfoot -6.25144 -0.0874867
ltoes -4.63767
